<mxfile host="app.diagrams.net" modified="2022-10-12T11:07:55.194Z" agent="5.0 (Macintosh)" etag="-V22cmreYfa_Uj0FFLoK" version="20.4.0" type="github">
  <diagram id="Igpn4x7Hh1Ou4ungXVDS" name="Page-1">
    <mxGraphModel dx="2398" dy="795" grid="1" gridSize="10" guides="1" tooltips="1" connect="1" arrows="1" fold="1" page="1" pageScale="1" pageWidth="1100" pageHeight="850" background="#ffffff" math="0" shadow="0">
      <root>
        <mxCell id="0" />
        <mxCell id="1" parent="0" />
        <mxCell id="sMMQY6d1q4D462ROFIbD-130" value="Loop" style="shape=umlFrame;whiteSpace=wrap;html=1;fontSize=12;fillColor=#f5f5f5;strokeColor=#666666;fontColor=#333333;" vertex="1" parent="1">
          <mxGeometry x="130" y="470" width="1010" height="130" as="geometry" />
        </mxCell>
        <mxCell id="sMMQY6d1q4D462ROFIbD-129" value="Loop" style="shape=umlFrame;whiteSpace=wrap;html=1;fontSize=12;fillColor=#d5e8d4;strokeColor=#82b366;strokeWidth=1;" vertex="1" parent="1">
          <mxGeometry x="80" y="390" width="1080" height="360" as="geometry" />
        </mxCell>
        <mxCell id="sMMQY6d1q4D462ROFIbD-138" value="Success" style="shape=umlFrame;whiteSpace=wrap;html=1;labelBackgroundColor=#7EA6E0;strokeWidth=1;fontSize=12;fillColor=#7EA6E0;strokeColor=#6c8ebf;fontStyle=1;fontColor=#FFFFFF;" vertex="1" parent="1">
          <mxGeometry x="20" y="250" width="1180" height="610" as="geometry" />
        </mxCell>
        <mxCell id="sMMQY6d1q4D462ROFIbD-105" value="&lt;b&gt;trigger&lt;/b&gt;" style="shape=umlLifeline;perimeter=lifelinePerimeter;whiteSpace=wrap;html=1;container=1;collapsible=0;recursiveResize=0;outlineConnect=0;" vertex="1" parent="1">
          <mxGeometry x="-88" y="200" width="168" height="160" as="geometry" />
        </mxCell>
        <mxCell id="sMMQY6d1q4D462ROFIbD-107" value="" style="html=1;points=[];perimeter=orthogonalPerimeter;" vertex="1" parent="sMMQY6d1q4D462ROFIbD-105">
          <mxGeometry x="79" y="65" width="10" height="50" as="geometry" />
        </mxCell>
        <mxCell id="sMMQY6d1q4D462ROFIbD-136" value="5 AM" style="text;html=1;align=center;verticalAlign=middle;resizable=0;points=[];autosize=1;strokeColor=none;fillColor=none;fontSize=12;fontColor=#000000;" vertex="1" parent="sMMQY6d1q4D462ROFIbD-105">
          <mxGeometry x="29" y="60" width="50" height="30" as="geometry" />
        </mxCell>
        <mxCell id="sMMQY6d1q4D462ROFIbD-110" value="&lt;b&gt;Google Shopping Feeds Export Job&lt;/b&gt;" style="shape=umlLifeline;perimeter=lifelinePerimeter;whiteSpace=wrap;html=1;container=1;collapsible=0;recursiveResize=0;outlineConnect=0;" vertex="1" parent="1">
          <mxGeometry x="130" y="200" width="230" height="770" as="geometry" />
        </mxCell>
        <mxCell id="sMMQY6d1q4D462ROFIbD-108" value="" style="html=1;points=[];perimeter=orthogonalPerimeter;" vertex="1" parent="sMMQY6d1q4D462ROFIbD-110">
          <mxGeometry x="110" y="80" width="10" height="690" as="geometry" />
        </mxCell>
        <mxCell id="sMMQY6d1q4D462ROFIbD-112" value="" style="html=1;points=[];perimeter=orthogonalPerimeter;" vertex="1" parent="sMMQY6d1q4D462ROFIbD-110">
          <mxGeometry x="190" y="120" width="10" height="40" as="geometry" />
        </mxCell>
        <mxCell id="sMMQY6d1q4D462ROFIbD-113" value="&lt;font style=&quot;font-size: 12px;&quot;&gt;&lt;b&gt;check if conjob&#39;s parameters are not empty : Base stores &amp;amp; languages&lt;/b&gt;&lt;/font&gt;" style="html=1;verticalAlign=bottom;endArrow=block;entryX=0;entryY=0;rounded=0;" edge="1" parent="sMMQY6d1q4D462ROFIbD-110">
          <mxGeometry x="1" y="150" relative="1" as="geometry">
            <mxPoint x="120" y="120" as="sourcePoint" />
            <mxPoint x="190" y="120" as="targetPoint" />
            <mxPoint x="150" y="140" as="offset" />
          </mxGeometry>
        </mxCell>
        <mxCell id="sMMQY6d1q4D462ROFIbD-114" value="OK" style="html=1;verticalAlign=bottom;endArrow=open;dashed=1;endSize=8;exitX=0;exitY=0.95;rounded=0;" edge="1" source="sMMQY6d1q4D462ROFIbD-112" parent="sMMQY6d1q4D462ROFIbD-110">
          <mxGeometry relative="1" as="geometry">
            <mxPoint x="120" y="158" as="targetPoint" />
          </mxGeometry>
        </mxCell>
        <mxCell id="sMMQY6d1q4D462ROFIbD-125" value="" style="html=1;points=[];perimeter=orthogonalPerimeter;fontSize=12;fontColor=#000000;" vertex="1" parent="sMMQY6d1q4D462ROFIbD-110">
          <mxGeometry x="190" y="440" width="10" height="80" as="geometry" />
        </mxCell>
        <mxCell id="sMMQY6d1q4D462ROFIbD-126" value="&lt;b&gt;copy temp file to the export Folder configured in the cronjob &lt;i&gt;ExportFolder&lt;/i&gt;&lt;br&gt;&lt;/b&gt;" style="html=1;verticalAlign=bottom;endArrow=block;entryX=0;entryY=0;rounded=0;fontSize=12;fontColor=#000000;" edge="1" target="sMMQY6d1q4D462ROFIbD-125" parent="sMMQY6d1q4D462ROFIbD-110">
          <mxGeometry x="1" y="180" relative="1" as="geometry">
            <mxPoint x="120" y="440" as="sourcePoint" />
            <mxPoint x="180" y="180" as="offset" />
          </mxGeometry>
        </mxCell>
        <mxCell id="sMMQY6d1q4D462ROFIbD-127" value="ok" style="html=1;verticalAlign=bottom;endArrow=open;dashed=1;endSize=8;exitX=0;exitY=0.95;rounded=0;fontSize=12;fontColor=#000000;" edge="1" source="sMMQY6d1q4D462ROFIbD-125" parent="sMMQY6d1q4D462ROFIbD-110">
          <mxGeometry x="-0.1429" y="-6" relative="1" as="geometry">
            <mxPoint x="120" y="516" as="targetPoint" />
            <mxPoint as="offset" />
          </mxGeometry>
        </mxCell>
        <mxCell id="sMMQY6d1q4D462ROFIbD-132" value="" style="html=1;points=[];perimeter=orthogonalPerimeter;labelBackgroundColor=#7EA6E0;fontSize=12;fontColor=#000000;" vertex="1" parent="sMMQY6d1q4D462ROFIbD-110">
          <mxGeometry x="180" y="550" width="10" height="60" as="geometry" />
        </mxCell>
        <mxCell id="sMMQY6d1q4D462ROFIbD-133" value="" style="html=1;verticalAlign=bottom;endArrow=block;entryX=0;entryY=0;rounded=0;fontSize=12;fontColor=#000000;" edge="1" target="sMMQY6d1q4D462ROFIbD-132" parent="sMMQY6d1q4D462ROFIbD-110">
          <mxGeometry relative="1" as="geometry">
            <mxPoint x="110" y="550" as="sourcePoint" />
          </mxGeometry>
        </mxCell>
        <mxCell id="sMMQY6d1q4D462ROFIbD-134" value="&lt;b&gt;Shopping feeds job finished successfully&lt;/b&gt;" style="html=1;verticalAlign=bottom;endArrow=open;dashed=1;endSize=8;exitX=0;exitY=0.95;rounded=0;fontSize=12;fontColor=#000000;" edge="1" source="sMMQY6d1q4D462ROFIbD-132" parent="sMMQY6d1q4D462ROFIbD-110">
          <mxGeometry x="-1" y="78" relative="1" as="geometry">
            <mxPoint x="120" y="607" as="targetPoint" />
            <mxPoint x="70" y="-44" as="offset" />
          </mxGeometry>
        </mxCell>
        <mxCell id="sMMQY6d1q4D462ROFIbD-144" value="" style="html=1;points=[];perimeter=orthogonalPerimeter;labelBackgroundColor=#7EA6E0;strokeWidth=1;fontSize=12;fontColor=#000000;" vertex="1" parent="sMMQY6d1q4D462ROFIbD-110">
          <mxGeometry x="190" y="680" width="10" height="80" as="geometry" />
        </mxCell>
        <mxCell id="sMMQY6d1q4D462ROFIbD-145" value="&lt;b&gt;Exception&lt;/b&gt;" style="html=1;verticalAlign=bottom;endArrow=block;entryX=0;entryY=0;rounded=0;fontSize=12;fontColor=#000000;" edge="1" target="sMMQY6d1q4D462ROFIbD-144" parent="sMMQY6d1q4D462ROFIbD-110">
          <mxGeometry x="-0.1429" relative="1" as="geometry">
            <mxPoint x="120" y="680" as="sourcePoint" />
            <mxPoint as="offset" />
          </mxGeometry>
        </mxCell>
        <mxCell id="sMMQY6d1q4D462ROFIbD-146" value="&lt;b&gt;Job Failed&lt;br&gt;&lt;/b&gt;" style="html=1;verticalAlign=bottom;endArrow=open;dashed=1;endSize=8;exitX=0;exitY=0.95;rounded=0;fontSize=12;fontColor=#000000;" edge="1" source="sMMQY6d1q4D462ROFIbD-144" parent="sMMQY6d1q4D462ROFIbD-110">
          <mxGeometry relative="1" as="geometry">
            <mxPoint x="120" y="756" as="targetPoint" />
          </mxGeometry>
        </mxCell>
        <mxCell id="sMMQY6d1q4D462ROFIbD-115" value="" style="html=1;points=[];perimeter=orthogonalPerimeter;" vertex="1" parent="1">
          <mxGeometry x="320" y="420" width="10" height="40" as="geometry" />
        </mxCell>
        <mxCell id="sMMQY6d1q4D462ROFIbD-116" value="&lt;font style=&quot;font-size: 12px;&quot;&gt;&lt;b&gt;For each base store create a tempo CSV file &quot;ShoppingFeeds_Export_&lt;i&gt;BaseStoreID&lt;/i&gt;.csv&quot;&lt;br&gt;&lt;/b&gt;&lt;/font&gt;" style="html=1;verticalAlign=bottom;endArrow=block;entryX=0;entryY=0;rounded=0;" edge="1" parent="1" target="sMMQY6d1q4D462ROFIbD-115">
          <mxGeometry x="1" y="200" relative="1" as="geometry">
            <mxPoint x="250" y="420" as="sourcePoint" />
            <mxPoint x="200" y="190" as="offset" />
          </mxGeometry>
        </mxCell>
        <mxCell id="sMMQY6d1q4D462ROFIbD-117" value="ok" style="html=1;verticalAlign=bottom;endArrow=open;dashed=1;endSize=8;exitX=0;exitY=0.95;rounded=0;" edge="1" parent="1" source="sMMQY6d1q4D462ROFIbD-115">
          <mxGeometry relative="1" as="geometry">
            <mxPoint x="250" y="458" as="targetPoint" />
          </mxGeometry>
        </mxCell>
        <mxCell id="sMMQY6d1q4D462ROFIbD-118" value="" style="html=1;points=[];perimeter=orthogonalPerimeter;" vertex="1" parent="1">
          <mxGeometry x="320" y="530" width="10" height="40" as="geometry" />
        </mxCell>
        <mxCell id="sMMQY6d1q4D462ROFIbD-119" value="&lt;font style=&quot;font-size: 12px;&quot;&gt;&lt;b&gt;For each&amp;nbsp; required approved variant Products from (b2cProductCatalog, online version )&lt;br&gt;&lt;/b&gt;&lt;/font&gt;" style="html=1;verticalAlign=bottom;endArrow=block;entryX=0;entryY=0;rounded=0;" edge="1" parent="1" target="sMMQY6d1q4D462ROFIbD-118">
          <mxGeometry x="1" y="201" relative="1" as="geometry">
            <mxPoint x="250" y="530" as="sourcePoint" />
            <mxPoint x="200" y="181" as="offset" />
          </mxGeometry>
        </mxCell>
        <mxCell id="sMMQY6d1q4D462ROFIbD-120" value="ok" style="html=1;verticalAlign=bottom;endArrow=open;dashed=1;endSize=8;exitX=0;exitY=0.95;rounded=0;" edge="1" parent="1" source="sMMQY6d1q4D462ROFIbD-118">
          <mxGeometry relative="1" as="geometry">
            <mxPoint x="250" y="568" as="targetPoint" />
          </mxGeometry>
        </mxCell>
        <mxCell id="sMMQY6d1q4D462ROFIbD-128" style="edgeStyle=orthogonalEdgeStyle;rounded=0;orthogonalLoop=1;jettySize=auto;html=1;fontSize=12;fontColor=#000000;entryX=1.1;entryY=0.475;entryDx=0;entryDy=0;entryPerimeter=0;" edge="1" parent="1" source="sMMQY6d1q4D462ROFIbD-121" target="sMMQY6d1q4D462ROFIbD-118">
          <mxGeometry relative="1" as="geometry">
            <Array as="points">
              <mxPoint x="340" y="550" />
              <mxPoint x="340" y="549" />
            </Array>
          </mxGeometry>
        </mxCell>
        <mxCell id="sMMQY6d1q4D462ROFIbD-121" value="&lt;div align=&quot;center&quot;&gt;Filter all products excluded from Store and archived ones, then start building the ShoppingFeedBean Object with all requied fields from fetched ProductVariants and linked items (media, price, stock status ...)&lt;/div&gt;" style="shape=note;strokeWidth=2;fontSize=14;size=20;whiteSpace=wrap;html=1;fillColor=#dae8fc;strokeColor=#6c8ebf;align=center;" vertex="1" parent="1">
          <mxGeometry x="810" y="480" width="300" height="110" as="geometry" />
        </mxCell>
        <mxCell id="sMMQY6d1q4D462ROFIbD-135" style="edgeStyle=orthogonalEdgeStyle;rounded=0;orthogonalLoop=1;jettySize=auto;html=1;entryX=0.1;entryY=0.002;entryDx=0;entryDy=0;entryPerimeter=0;fontSize=12;fontColor=#000000;" edge="1" parent="1" source="sMMQY6d1q4D462ROFIbD-107" target="sMMQY6d1q4D462ROFIbD-108">
          <mxGeometry relative="1" as="geometry" />
        </mxCell>
        <mxCell id="sMMQY6d1q4D462ROFIbD-137" value="" style="shape=image;html=1;verticalAlign=top;verticalLabelPosition=bottom;labelBackgroundColor=#ffffff;imageAspect=0;aspect=fixed;image=https://cdn0.iconfinder.com/data/icons/google-material-design-3-0/48/ic_loop_48px-128.png;fontSize=12;fontColor=#000000;" vertex="1" parent="1">
          <mxGeometry x="-80" y="261" width="30" height="30" as="geometry" />
        </mxCell>
        <mxCell id="sMMQY6d1q4D462ROFIbD-147" value="&lt;b&gt;Failure&lt;/b&gt;" style="shape=umlFrame;whiteSpace=wrap;html=1;labelBackgroundColor=none;strokeWidth=1;fontSize=12;fillColor=#e51400;strokeColor=#FF0000;fontColor=#ffffff;" vertex="1" parent="1">
          <mxGeometry x="20" y="860" width="1180" height="110" as="geometry" />
        </mxCell>
        <mxCell id="sMMQY6d1q4D462ROFIbD-150" value="path of the&amp;nbsp; export folder:&lt;br&gt;/customer/sftp/shoppingFeeds" style="shape=note;whiteSpace=wrap;html=1;backgroundOutline=1;darkOpacity=0.05;labelBackgroundColor=none;strokeColor=default;strokeWidth=1;fontFamily=Helvetica;fontSize=12;fontColor=default;fillColor=#FFFFFF;" vertex="1" parent="1">
          <mxGeometry x="790" y="620" width="200" height="100" as="geometry" />
        </mxCell>
        <mxCell id="sMMQY6d1q4D462ROFIbD-151" value="&lt;b&gt;images are saved as String Fields in the ShoppingFeedBean Object with many Media Formats&lt;br&gt;&lt;/b&gt;" style="shape=note;size=20;whiteSpace=wrap;html=1;labelBackgroundColor=none;strokeColor=default;strokeWidth=1;fontFamily=Helvetica;fontSize=12;fontColor=default;fillColor=none;" vertex="1" parent="1">
          <mxGeometry x="1230" y="480" width="300" height="100" as="geometry" />
        </mxCell>
      </root>
    </mxGraphModel>
  </diagram>
</mxfile>
